<?xml version="1.0" encoding="utf-8"?>
<!-- Generator: Adobe Illustrator 16.0.0, SVG Export Plug-In . SVG Version: 6.00 Build 0)  -->
<!DOCTYPE svg PUBLIC "-//W3C//DTD SVG 1.1//EN" "http://www.w3.org/Graphics/SVG/1.1/DTD/svg11.dtd">
<svg version="1.1" id="Layer_1" xmlns="http://www.w3.org/2000/svg" xmlns:xlink="http://www.w3.org/1999/xlink" x="0px" y="0px"
	 width="22px" height="17px" viewBox="0 0 22 17" enable-background="new 0 0 22 17" xml:space="preserve">
<title>FC36197F-7E77-42A6-889B-55E8947BFC99</title>
<desc>Created with sketchtool.</desc>
<g id="Group-4" transform="translate(220.000000, 42.000000)">
	<g id="Group-3">
		<path d="M-199.805-25.5h-18.39c-0.521,0-0.871-0.488-0.871-1.215v-13.57c-0.01-0.171-0.023-0.397,0.142-0.61l0.15-0.194
			l0.326-0.008c0.019-0.001,0.039-0.002,0.058-0.002l18.584,0.028c0.215,0,0.869,0,0.869,0.787v13.57
			C-198.936-25.988-199.285-25.5-199.805-25.5z M-218.04-26.5h18.079c0.014-0.057,0.025-0.134,0.025-0.215v-13.356h-18.13v13.356
			C-218.065-26.634-218.054-26.557-218.04-26.5z"/>
		<path d="M-208.947-32.005c-0.887,0-1.774-0.315-2.452-0.945l-7.545-7.279l0.694-0.72l7.538,7.273
			c0.978,0.91,2.575,0.905,3.553-0.021l7.439-7.201l0.695,0.719l-7.443,7.205C-207.149-32.328-208.049-32.005-208.947-32.005z"/>
		
			<rect x="-207.53" y="-31.035" transform="matrix(0.6007 0.7995 -0.7995 0.6007 -105.2375 149.6439)" width="10.194" height="0.999"/>
		
			<rect x="-216.004" y="-35.67" transform="matrix(0.7933 0.6089 -0.6089 0.7933 -63.1414 124.8992)" width="1.001" height="10.27"/>
	</g>
</g>
</svg>
