<?xml version="1.0" encoding="UTF-8" standalone="no"?>
<svg width="29px" height="28px" viewBox="0 0 29 28" version="1.1" xmlns="http://www.w3.org/2000/svg" xmlns:xlink="http://www.w3.org/1999/xlink">
    <!-- Generator: sketchtool 40.3 (33839) - http://www.bohemiancoding.com/sketch -->
    <title>E2986896-081D-4F53-9557-D4FA380ECD9B</title>
    <desc>Created with sketchtool.</desc>
    <defs></defs>
    <g id="Symbols" stroke="none" stroke-width="1" fill="none" fill-rule="evenodd">
        <g id="Desktop---Footer" transform="translate(-845.000000, -83.000000)">
            <g id="Group-15">
                <g id="Group-13" transform="translate(845.000000, 45.000000)">
                    <g id="Group-2-Copy-4" transform="translate(0.250701, 38.000000)">
                        <g id="facebook">
                            <rect id="Rectangle" x="0" y="0" width="28.364947" height="28"></rect>
                            <ellipse id="Oval" fill="#FFFFFF" cx="14.1824735" cy="14" rx="14.1824735" ry="14"></ellipse>
                            <path d="M15.0300089,22.2727273 L11.8857133,22.2727273 L11.8857133,14.9536217 L10.3145262,14.9536217 L10.3145262,12.4317034 L11.8857133,12.4317034 L11.8857133,10.9176287 C11.8857133,8.86037158 12.7724181,7.63636364 15.2932344,7.63636364 L17.3913528,7.63636364 L17.3913528,10.1592057 L16.0800288,10.1592057 C15.0986973,10.1592057 15.0338516,10.5116276 15.0338516,11.1693586 L15.0295286,12.4317034 L17.4057629,12.4317034 L17.127647,14.9536217 L15.0295286,14.9536217 L15.0295286,22.2727273 L15.0300089,22.2727273 Z" id="Shape" fill="#272626"></path>
                        </g>
                    </g>
                </g>
            </g>
        </g>
    </g>
</svg>