<?xml version="1.0" encoding="UTF-8" standalone="no"?>
<svg width="28px" height="28px" viewBox="0 0 28 28" version="1.1" xmlns="http://www.w3.org/2000/svg" xmlns:xlink="http://www.w3.org/1999/xlink">
    <!-- Generator: sketchtool 41 (35326) - http://www.bohemiancoding.com/sketch -->
    <title>F9D3974B-3619-419B-9825-17DA51D30B92</title>
    <desc>Created with sketchtool.</desc>
    <defs>
        <circle id="path-1" cx="14" cy="14" r="14"></circle>
        <mask id="mask-2" maskContentUnits="userSpaceOnUse" maskUnits="objectBoundingBox" x="0" y="0" width="28" height="28" fill="white">
            <use xlink:href="#path-1"></use>
        </mask>
    </defs>
    <g id="Desktop" stroke="none" stroke-width="1" fill="none" fill-rule="evenodd">
        <g id="Desktop---Blog" transform="translate(-1262.000000, -170.000000)">
            <g id="Main-banner" transform="translate(229.000000, 121.000000)">
                <g id="Author-profile" transform="translate(787.000000, 0.000000)">
                    <g id="Facebook" transform="translate(246.000000, 49.000000)">
                        <g id="Group-6">
                            <rect id="Rectangle" x="0" y="0" width="28" height="28"></rect>
                            <use id="Oval" stroke="#4A4A4A" mask="url(#mask-2)" stroke-width="2" xlink:href="#path-1"></use>
                            <path d="M14.8366309,22.2727273 L11.7327902,22.2727273 L11.7327902,14.9536217 L10.1818182,14.9536217 L10.1818182,12.4317034 L11.7327902,12.4317034 L11.7327902,10.9176287 C11.7327902,8.86037158 12.6080866,7.63636364 15.0964697,7.63636364 L17.1675934,7.63636364 L17.1675934,10.1592057 L15.8731411,10.1592057 C14.9044355,10.1592057 14.8404242,10.5116276 14.8404242,11.1693586 L14.8361567,12.4317034 L17.1818182,12.4317034 L16.9072805,14.9536217 L14.8361567,14.9536217 L14.8361567,22.2727273 L14.8366309,22.2727273 Z" id="Shape" fill="#4A4A4A"></path>
                        </g>
                    </g>
                </g>
            </g>
        </g>
    </g>
</svg>