<?xml version="1.0" encoding="UTF-8" standalone="no"?>
<svg width="28px" height="28px" viewBox="0 0 28 28" version="1.1" xmlns="http://www.w3.org/2000/svg" xmlns:xlink="http://www.w3.org/1999/xlink">
    <!-- Generator: sketchtool 41 (35326) - http://www.bohemiancoding.com/sketch -->
    <title>F30F5AC2-A290-40A4-8895-656F2742B989</title>
    <desc>Created with sketchtool.</desc>
    <defs>
        <ellipse id="path-1" cx="14" cy="14" rx="14" ry="14"></ellipse>
        <mask id="mask-2" maskContentUnits="userSpaceOnUse" maskUnits="objectBoundingBox" x="0" y="0" width="28" height="28" fill="white">
            <use xlink:href="#path-1"></use>
        </mask>
    </defs>
    <g id="Desktop" stroke="none" stroke-width="1" fill="none" fill-rule="evenodd">
        <g id="Desktop---Article" transform="translate(-505.000000, -412.000000)">
            <g id="Social-media" transform="translate(425.000000, 412.000000)">
                <g id="Google-+" transform="translate(80.000000, 0.000000)">
                    <rect id="Rectangle" x="0" y="0" width="28" height="28"></rect>
                    <use id="Oval" stroke="#4A4A4A" mask="url(#mask-2)" stroke-width="2" xlink:href="#path-1"></use>
                    <path d="M11.5901189,21.5489983 C9.86221941,21.5489983 8.6151936,20.4474846 8.6151936,19.1248076 C8.6151936,17.8279473 10.1628722,16.7479475 11.8899175,16.7668798 C12.2922115,16.7720431 12.6680275,16.8365849 13.0088243,16.9475969 C13.9458019,17.6050629 14.6188541,17.9759632 14.8084704,18.7246483 C14.8443437,18.876967 14.8639887,19.0318674 14.8639887,19.1919311 C14.8639887,20.5154687 14.0175486,21.5489983 11.5901189,21.5489983 M12.0436604,13.790211 C10.8846097,13.7549282 9.78278557,12.4838846 9.58291979,10.9503709 C9.38305401,9.41685731 10.1603098,8.24305674 11.3193605,8.27747905 C12.4775571,8.31276191 13.5802354,9.54249872 13.7801012,11.0768729 C13.979967,12.6103866 13.2027111,13.8254939 12.0436604,13.790211 M14.4463204,16.0612225 C14.0397559,15.7712146 13.2633542,15.0664179 13.2633542,14.6516292 C13.2633542,14.1645536 13.4008687,13.9261791 14.1260227,13.3547689 C14.8699676,12.7687292 15.3969641,11.9451755 15.3969641,10.9882355 C15.3969641,9.84713611 14.893029,8.73615625 13.946656,8.36955871 L15.3730485,8.36955871 L16.3800646,7.63636364 L11.8805221,7.63636364 C9.86478179,7.63636364 7.96605688,9.17590118 7.96605688,10.9589765 C7.96605688,12.7816375 9.34120178,14.2523305 11.3928155,14.2523305 C11.5363088,14.2523305 11.6738233,14.2497488 11.8096296,14.2394221 C11.6772398,14.4958683 11.5807235,14.7858762 11.5807235,15.0853502 C11.5807235,15.5922186 11.8514818,16.0035652 12.1939868,16.3383221 C11.9351863,16.3383221 11.684927,16.3460671 11.4141686,16.3460671 C8.9158464,16.3460671 6.9923518,17.9484253 6.9923518,19.6118832 C6.9923518,21.2486637 9.10119201,22.2727273 11.5986601,22.2727273 C14.4463204,22.2727273 16.020477,20.6445523 16.020477,19.0069112 C16.020477,17.6945608 15.6352656,16.9080112 14.4463204,16.0612225 M20.9923518,13.9235975 L19.2413909,13.9235975 L19.2413909,12.1594544 L17.8312268,12.1594544 L17.8312268,13.9235975 L16.0802659,13.9235975 L16.0802659,15.344378 L17.8312268,15.344378 L17.8312268,17.1085211 L19.2413909,17.1085211 L19.2413909,15.344378 L20.9923518,15.344378 L20.9923518,13.9235975" id="Shape" fill="#4A4A4A"></path>
                </g>
            </g>
        </g>
    </g>
</svg>