<?xml version="1.0" encoding="UTF-8" standalone="no"?>
<svg width="29px" height="28px" viewBox="0 0 29 28" version="1.1" xmlns="http://www.w3.org/2000/svg" xmlns:xlink="http://www.w3.org/1999/xlink">
    <!-- Generator: sketchtool 40.3 (33839) - http://www.bohemiancoding.com/sketch -->
    <title>5DC97E7C-18B3-4B11-9E8C-6317B84F66FF</title>
    <desc>Created with sketchtool.</desc>
    <defs></defs>
    <g id="Symbols" stroke="none" stroke-width="1" fill="none" fill-rule="evenodd">
        <g id="Desktop---Footer" transform="translate(-845.000000, -160.000000)">
            <g id="Group-15">
                <g id="Group-13" transform="translate(845.000000, 45.000000)">
                    <g id="Group-4-Copy-4" transform="translate(0.250701, 115.000000)">
                        <g id="googleplus">
                            <rect id="Rectangle" x="0" y="0" width="28.364947" height="28"></rect>
                            <ellipse id="Oval" fill="#F5F5F5" cx="14.1824735" cy="14" rx="14.1824735" ry="14"></ellipse>
                            <path d="M11.7489303,21.5489983 C9.9985097,21.5489983 8.73523039,20.4474846 8.73523039,19.1248076 C8.73523039,17.8279473 10.3030812,16.7479475 12.0526365,16.7668798 C12.4601739,16.7720431 12.8408882,16.8365849 13.1861268,16.9475969 C14.1353168,17.6050629 14.8171416,17.9759632 15.0092292,18.7246483 C15.0455702,18.876967 15.0654711,19.0318674 15.0654711,19.1919311 C15.0654711,20.5154687 14.2079987,21.5489983 11.7489303,21.5489983 M12.2083833,13.790211 C11.0342257,13.7549282 9.91804054,12.4838846 9.71556975,10.9503709 C9.51309895,9.41685731 10.3004854,8.24305674 11.4746429,8.27747905 C12.6479352,8.31276191 13.7649856,9.54249872 13.9674564,11.0768729 C14.1699272,12.6103866 13.3825408,13.8254939 12.2083833,13.790211 M14.6423591,16.0612225 C14.2304954,15.7712146 13.4439743,15.0664179 13.4439743,14.6516292 C13.4439743,14.1645536 13.5832811,13.9261791 14.3178867,13.3547689 C15.071528,12.7687292 15.6053933,11.9451755 15.6053933,10.9882355 C15.6053933,9.84713611 15.09489,8.73615625 14.1361821,8.36955871 L15.581166,8.36955871 L16.6013073,7.63636364 L12.0431186,7.63636364 C10.0011055,7.63636364 8.07763293,9.17590118 8.07763293,10.9589765 C8.07763293,12.7816375 9.47070122,14.2523305 11.5490553,14.2523305 C11.6944189,14.2523305 11.8337258,14.2497488 11.9713021,14.2394221 C11.8371868,14.4958683 11.7394124,14.7858762 11.7394124,15.0853502 C11.7394124,15.5922186 12.0136998,16.0035652 12.360669,16.3383221 C12.0984953,16.3383221 11.8449741,16.3460671 11.5706868,16.3460671 C9.03980184,16.3460671 7.09123675,17.9484253 7.09123675,19.6118832 C7.09123675,21.2486637 9.22756322,22.2727273 11.7575829,22.2727273 C14.6423591,22.2727273 16.2370329,20.6445523 16.2370329,19.0069112 C16.2370329,17.6945608 15.8468007,16.9080112 14.6423591,16.0612225 M21.2737103,13.9235975 L19.4999277,13.9235975 L19.4999277,12.1594544 L18.0713837,12.1594544 L18.0713837,13.9235975 L16.2976011,13.9235975 L16.2976011,15.344378 L18.0713837,15.344378 L18.0713837,17.1085211 L19.4999277,17.1085211 L19.4999277,15.344378 L21.2737103,15.344378 L21.2737103,13.9235975" id="Shape" fill="#272626"></path>
                        </g>
                    </g>
                </g>
            </g>
        </g>
    </g>
</svg>