<?xml version="1.0" encoding="UTF-8" standalone="no"?>
<svg width="30px" height="28px" viewBox="0 0 30 28" version="1.1" xmlns="http://www.w3.org/2000/svg" xmlns:xlink="http://www.w3.org/1999/xlink">
    <!-- Generator: sketchtool 41 (35326) - http://www.bohemiancoding.com/sketch -->
    <title>0033F1A5-075D-4B5E-BFB1-5159774A55EF</title>
    <desc>Created with sketchtool.</desc>
    <defs></defs>
    <g id="Desktop" stroke="none" stroke-width="1" fill="none" fill-rule="evenodd" stroke-linecap="round" stroke-linejoin="round">
        <g id="Desktop---Article" transform="translate(-1100.000000, -3202.000000)" stroke="#4A4A4A" stroke-width="2">
            <g id="Icon" transform="translate(1101.000000, 3203.000000)">
                <path d="M1.11095455,10.9437787 L13.2534545,25.1071614 C13.4627727,25.3514035 13.8050455,25.348076 14.0116364,25.1071614 L26.1534545,10.9437787 L25.6693636,11.5493927 C26.3839091,10.6769092 26.8959545,9.62540347 27.1298182,8.46941269 C27.2232273,8.00688327 27.273,7.52771611 27.273,7.03723528 C27.273,3.15398474 24.1918636,0.00545718157 20.3907273,0.00545718157 C17.2550455,0.00545718157 14.6095909,2.14839921 13.7798182,5.07863951 L13.4934545,5.07331543 C12.663,2.14240962 10.0175455,0.000133101989 6.88186364,0.000133101989 C3.08140909,0.000133101989 0.000272727273,3.14799515 0.000272727273,7.0319112 C0.000272727273,7.52239203 0.0493636364,8.00089368 0.142772727,8.4634231 C0.376636364,9.61941388 0.888681818,10.6715851 1.60390909,11.5440686" id="Stroke-1"></path>
            </g>
        </g>
    </g>
</svg>