<?xml version="1.0" encoding="UTF-8" standalone="no"?>
<svg width="32px" height="28px" viewBox="0 0 32 28" version="1.1" xmlns="http://www.w3.org/2000/svg" xmlns:xlink="http://www.w3.org/1999/xlink">
    <!-- Generator: sketchtool 40.3 (33839) - http://www.bohemiancoding.com/sketch -->
    <title>6FCE6119-CE3B-4CD2-B28B-8FFB60A467D2</title>
    <desc>Created with sketchtool.</desc>
    <defs></defs>
    <g id="Symbols" stroke="none" stroke-width="1" fill="none" fill-rule="evenodd">
        <g id="Style-1---Instagram-with-caption" transform="translate(-116.000000, -35.000000)" fill="#FEFEFE">
            <g id="Page-1" transform="translate(116.000000, 35.000000)">
                <path d="M22.3710533,19.9336479 C20.5102896,21.5997447 18.2894897,22.4320182 15.7051919,22.4320182 C13.120894,22.4320182 10.9104798,21.5997447 9.07568025,19.9336479 C7.23914974,18.2691009 6.32174996,16.2899328 6.32174996,13.9976934 C6.32174996,13.6086792 6.37021636,13.0677789 6.46714917,12.3749926 L0.163054829,12.3749926 L0.163054829,23.533967 C0.163054829,24.7459556 0.63387132,25.7828103 1.5755043,26.6491806 C2.51713729,27.5124513 3.66475248,27.9464114 5.01661895,27.9464114 L26.4647334,27.9464114 C27.8165999,27.9464114 28.9642151,27.5124513 29.9058481,26.6491806 C30.849212,25.7828103 31.3200285,24.7459556 31.3200285,23.533967 L31.3200285,12.3749926 L24.9432346,12.3749926 C25.0886338,12.8941949 25.1613334,13.4350952 25.1613334,13.9976934 C25.1613334,16.2899328 24.2300861,18.2691009 22.3710533,19.9336479 L22.3710533,19.9336479 Z M5.01661895,0.0489754986 C3.66475248,0.0489754986 2.51713729,0.470536752 1.5755043,1.31365926 C0.63387132,2.15678177 0.163054829,3.18433732 0.163054829,4.39477607 L0.163054829,9.13114074 L8.06134766,9.13114074 C9.84768082,6.7521094 12.4077455,5.56336866 15.7415417,5.56336866 C18.9766741,5.56336866 21.5384697,6.7521094 23.4217357,9.13114074 L31.3200285,9.13114074 L31.3200285,4.39477607 C31.3200285,3.18433732 30.849212,2.15678177 29.9058481,1.31365926 C28.9642151,0.470536752 27.8165999,0.0489754986 26.4647334,0.0489754986 L5.01661895,0.0489754986 Z M27.9135327,6.21275897 L25.3050016,6.21275897 C25.0644006,6.21275897 24.8584184,6.12596695 24.6905169,5.95238291 C24.5208845,5.78034872 24.4360683,5.60676467 24.4360683,5.43318063 L24.4360683,3.0975453 C24.4360683,2.57834302 24.7251357,2.31951681 25.3050016,2.31951681 L27.9135327,2.31951681 C28.4933986,2.31951681 28.784197,2.57834302 28.784197,3.0975453 L28.784197,5.43318063 C28.784197,5.95238291 28.4933986,6.21275897 27.9135327,6.21275897 L27.9135327,6.21275897 Z M19.8352218,10.2997333 C18.6997232,9.30472479 17.3357402,8.80722051 15.7415417,8.80722051 C14.1473432,8.80722051 12.7816292,9.30472479 11.6478615,10.2997333 C10.5123629,11.2947419 9.94461362,12.5160296 9.94461362,13.9651464 C9.94461362,15.4142632 10.5123629,16.6464 11.6478615,17.6631066 C12.7816292,18.6798131 14.1473432,19.1881664 15.7415417,19.1881664 C17.3357402,19.1881664 18.6997232,18.6798131 19.8352218,17.6631066 C20.9707204,16.6464 21.5384697,15.4251123 21.5384697,13.9976934 C21.5384697,12.5268786 20.9707204,11.2947419 19.8352218,10.2997333 L19.8352218,10.2997333 Z" id="Fill-4"></path>
            </g>
        </g>
    </g>
</svg>