<?xml version="1.0" encoding="UTF-8" standalone="no"?>
<svg width="28px" height="28px" viewBox="0 0 28 28" version="1.1" xmlns="http://www.w3.org/2000/svg" xmlns:xlink="http://www.w3.org/1999/xlink">
    <!-- Generator: sketchtool 41 (35326) - http://www.bohemiancoding.com/sketch -->
    <title>44FC7164-EA11-43D4-AF36-AE7088FC65AF</title>
    <desc>Created with sketchtool.</desc>
    <defs>
        <ellipse id="path-1" cx="14" cy="14" rx="14" ry="14"></ellipse>
        <mask id="mask-2" maskContentUnits="userSpaceOnUse" maskUnits="objectBoundingBox" x="0" y="0" width="28" height="28" fill="white">
            <use xlink:href="#path-1"></use>
        </mask>
    </defs>
    <g id="Desktop" stroke="none" stroke-width="1" fill="none" fill-rule="evenodd">
        <g id="Desktop---Article" transform="translate(-545.000000, -412.000000)">
            <g id="Social-media" transform="translate(425.000000, 412.000000)">
                <g id="Linkedin" transform="translate(120.000000, 0.000000)">
                    <rect id="Rectangle" x="0" y="0" width="28" height="28"></rect>
                    <use id="Oval" stroke="#4A4A4A" mask="url(#mask-2)" stroke-width="2" xlink:href="#path-1"></use>
                    <path d="M7.95738904,11.7174356 L10.4380399,11.7174356 L10.4380399,20.3628215 L7.95738904,20.3628215 L7.95738904,11.7174356 Z M9.13448217,10.6360493 L9.11652271,10.6360493 C8.21854956,10.6360493 7.63636364,9.97515687 7.63636364,9.13824375 C7.63636364,8.28421751 8.23576071,7.63636364 9.15169332,7.63636364 C10.0668776,7.63636364 10.6296075,8.28258769 10.6475669,9.13579902 C10.6475669,9.97271214 10.0668776,10.6360493 9.13448217,10.6360493 L9.13448217,10.6360493 Z M20.3636364,20.3636364 L17.5507355,20.3636364 L17.5507355,15.8889626 C17.5507355,14.7179362 17.1107286,13.9193239 16.1431626,13.9193239 C15.403083,13.9193239 14.991512,14.4579797 14.7999444,14.9787076 C14.7281066,15.1645072 14.7393312,15.4244636 14.7393312,15.685235 L14.7393312,20.3636364 L11.9526212,20.3636364 C11.9526212,20.3636364 11.9885402,12.4378165 11.9526212,11.7174356 L14.7393312,11.7174356 L14.7393312,13.0742616 C14.9039596,12.4810068 15.7944497,11.6343147 17.2154922,11.6343147 C18.9785128,11.6343147 20.3636364,12.8786831 20.3636364,15.5556642 L20.3636364,20.3636364 L20.3636364,20.3636364 Z" id="Shape" fill="#4A4A4A"></path>
                </g>
            </g>
        </g>
    </g>
</svg>