<?xml version="1.0" encoding="UTF-8" standalone="no"?>
<svg width="29px" height="28px" viewBox="0 0 29 28" version="1.1" xmlns="http://www.w3.org/2000/svg" xmlns:xlink="http://www.w3.org/1999/xlink">
    <!-- Generator: sketchtool 40.3 (33839) - http://www.bohemiancoding.com/sketch -->
    <title>8E20E9DA-D245-4283-B7A8-9D4F609CA515</title>
    <desc>Created with sketchtool.</desc>
    <defs></defs>
    <g id="Symbols" stroke="none" stroke-width="1" fill="none" fill-rule="evenodd">
        <g id="Desktop---Footer" transform="translate(-845.000000, -198.000000)">
            <g id="Group-15">
                <g id="Group-13" transform="translate(845.000000, 45.000000)">
                    <g id="linkedin-copy-2" transform="translate(0.250701, 153.000000)">
                        <g id="Group-5">
                            <rect id="Rectangle" x="0" y="0" width="28.364947" height="28"></rect>
                            <ellipse id="Oval" fill="#F5F5F5" cx="14.1824735" cy="14" rx="14.1824735" ry="14"></ellipse>
                            <path d="M8.06110423,11.7174356 L10.5740874,11.7174356 L10.5740874,20.3628215 L8.06110423,20.3628215 L8.06110423,11.7174356 Z M9.25353938,10.6360493 L9.23534584,10.6360493 C8.32566867,10.6360493 7.73589464,9.97515687 7.73589464,9.13824375 C7.73589464,8.28421751 8.34310415,7.63636364 9.27097486,7.63636364 C10.1980875,7.63636364 10.7681519,8.28258769 10.7863454,9.13579902 C10.7863454,9.97271214 10.1980875,10.6360493 9.25353938,10.6360493 L9.25353938,10.6360493 Z M20.6290524,20.3636364 L17.7794886,20.3636364 L17.7794886,15.8889626 C17.7794886,14.7179362 17.3337468,13.9193239 16.3535697,13.9193239 C15.6038441,13.9193239 15.1869087,14.4579797 14.9928442,14.9787076 C14.9200701,15.1645072 14.931441,15.4244636 14.931441,15.685235 L14.931441,20.3636364 L12.1084096,20.3636364 C12.1084096,20.3636364 12.1447966,12.4378165 12.1084096,11.7174356 L14.931441,11.7174356 L14.931441,13.0742616 C15.0982152,12.4810068 16.0003117,11.6343147 17.4398758,11.6343147 C19.2258753,11.6343147 20.6290524,12.8786831 20.6290524,15.5556642 L20.6290524,20.3636364 L20.6290524,20.3636364 Z" id="Shape" fill="#272626"></path>
                        </g>
                    </g>
                </g>
            </g>
        </g>
    </g>
</svg>