<?xml version="1.0" encoding="UTF-8" standalone="no"?>
<svg width="57px" height="57px" viewBox="0 0 57 57" version="1.1" xmlns="http://www.w3.org/2000/svg" xmlns:xlink="http://www.w3.org/1999/xlink">
    <!-- Generator: sketchtool 40.3 (33839) - http://www.bohemiancoding.com/sketch -->
    <title>874D28BE-F96A-4065-A041-280A66CE48E4</title>
    <desc>Created with sketchtool.</desc>
    <defs></defs>
    <g id="Symbols" stroke="none" stroke-width="1" fill="none" fill-rule="evenodd">
        <g id="Style-4---YouTube" transform="translate(-286.000000, -23.000000)" fill="#FFFFFF">
            <g id="Group" transform="translate(286.000000, 23.000000)">
                <path d="M28.5,57 C44.2401154,57 57,44.2401154 57,28.5 C57,12.7598846 44.2401154,0 28.5,0 C12.7598846,0 0,12.7598846 0,28.5 C0,44.2401154 12.7598846,57 28.5,57 Z M28.5,52.25 C41.6167628,52.25 52.25,41.6167628 52.25,28.5 C52.25,15.3832372 41.6167628,4.75 28.5,4.75 C15.3832372,4.75 4.75,15.3832372 4.75,28.5 C4.75,41.6167628 15.3832372,52.25 28.5,52.25 Z" id="Combined-Shape"></path>
                <polygon id="Triangle" transform="translate(31.783654, 28.783654) rotate(90.000000) translate(-31.783654, -28.783654) " points="31.7836538 17 43.5673077 40.5673077 20 40.5673077"></polygon>
            </g>
        </g>
    </g>
</svg>