<?xml version="1.0" encoding="utf-8"?>
<!-- Generator: Adobe Illustrator 16.0.0, SVG Export Plug-In . SVG Version: 6.00 Build 0)  -->
<!DOCTYPE svg PUBLIC "-//W3C//DTD SVG 1.1//EN" "http://www.w3.org/Graphics/SVG/1.1/DTD/svg11.dtd">
<svg version="1.1" id="Layer_1" xmlns="http://www.w3.org/2000/svg" xmlns:xlink="http://www.w3.org/1999/xlink" x="0px" y="0px"
	 width="67px" height="35px" viewBox="0 0 67 35" enable-background="new 0 0 67 35" xml:space="preserve">
<rect fill="#FA6D6D" width="67" height="35"/>
<g id="Symbols">
	<g id="Desktop---Footer" transform="translate(-1256.000000, -89.000000)">
		<g id="Group-2" transform="translate(1037.000000, 48.000000)">
			<g id="Group-4" transform="translate(220.000000, 42.000000)">
				<g id="Group-3">
					<path id="Stroke-98" fill="none" stroke="#FFFFFF" d="M41.945,23.899h-18.39c-0.278,0-0.371-0.439-0.371-0.715V9.615
						c0-0.114-0.028-0.22,0.037-0.304c0.024-0.032,0.019,0.047,0.049,0.022c0.087-0.07,0.164-0.004,0.284-0.004h18.39
						c0.278,0,0.369,0.011,0.369,0.287v13.569C42.314,23.46,42.224,23.899,41.945,23.899L41.945,23.899z"/>
					<path id="Stroke-100" fill="none" stroke="#FFFFFF" d="M23.154,9.311l7.538,7.273c1.183,1.099,3.072,1.091,4.244-0.017
						l7.443-7.205"/>
					<path id="Stroke-102" fill="none" stroke="#FFFFFF" d="M42.379,23.438l-6.124-8.149"/>
					<path id="Stroke-104" fill="none" stroke="#FFFFFF" d="M23.122,23.438l6.25-8.149"/>
				</g>
			</g>
		</g>
	</g>
</g>
</svg>
