<?xml version="1.0" encoding="UTF-8" standalone="no"?>
<svg width="34px" height="29px" viewBox="0 0 34 29" version="1.1" xmlns="http://www.w3.org/2000/svg" xmlns:xlink="http://www.w3.org/1999/xlink">
    <!-- Generator: sketchtool 40.3 (33839) - http://www.bohemiancoding.com/sketch -->
    <title>AE53A3A7-7F52-4D54-A1BD-11BEBC2A0320</title>
    <desc>Created with sketchtool.</desc>
    <defs></defs>
    <g id="Symbols" stroke="none" stroke-width="1" fill="none" fill-rule="evenodd">
        <g id="Style-3---Twitter-with-image" transform="translate(-114.000000, -38.000000)">
            <g id="twitter" transform="translate(109.000000, 35.000000)">
                <rect id="Rectangle" x="0" y="0" width="44" height="44"></rect>
                <path d="M34.9947174,7.58478983 C36.4355814,6.67997978 37.5411751,5.24526939 38.0600458,3.53618374 C36.710982,4.37606529 35.2202266,4.98346093 33.6296883,5.31229236 C32.3604508,3.88805431 30.546399,3 28.5387686,3 C24.6871515,3 21.5659447,6.27784198 21.5659447,10.3201647 C21.5659447,10.8940488 21.6238187,11.4532717 21.7435581,11.987361 C15.9481716,11.6815687 10.8093561,8.77025856 7.36684862,4.33836487 C6.76615601,5.42329915 6.42290309,6.67997978 6.42290309,8.02043912 C6.42290309,10.558934 7.65422316,12.8000144 9.52614897,14.1153402 C8.38263779,14.0776398 7.30697893,13.7446194 6.36502905,13.2000578 L6.36502905,13.2901199 C6.36502905,16.8381482 8.7677995,19.7976311 11.9628456,20.4678608 C11.3761226,20.6396071 10.7614604,20.7254803 10.1228503,20.7254803 C9.67382755,20.7254803 9.23478312,20.6814965 8.81170394,20.5956233 C9.69777543,23.5027445 12.274168,25.6223458 15.3275225,25.6788964 C12.9387216,27.6435072 9.93126724,28.8122201 6.66437753,28.8122201 C6.10160239,28.8122201 5.54481423,28.7808031 5,28.7116857 C8.08728062,30.7873032 11.7533016,32 15.6927276,32 C28.524799,32 35.537536,20.8448649 35.537536,11.1705186 C35.537536,10.8521595 35.5335446,10.5358948 35.519575,10.2238192 C36.8826084,9.19124657 38.0680284,7.90105446 39,6.43283259 C37.7487234,7.01509461 36.4036509,7.40885454 34.9947174,7.58478983 Z" id="Shape" fill="#FFFFFF"></path>
            </g>
        </g>
    </g>
</svg>