<?xml version="1.0" encoding="UTF-8" standalone="no"?>
<svg width="29px" height="28px" viewBox="0 0 29 28" version="1.1" xmlns="http://www.w3.org/2000/svg" xmlns:xlink="http://www.w3.org/1999/xlink">
    <!-- Generator: sketchtool 40.3 (33839) - http://www.bohemiancoding.com/sketch -->
    <title>B1047BB7-6552-4D2B-979F-D60D7E2DB4CD</title>
    <desc>Created with sketchtool.</desc>
    <defs></defs>
    <g id="Symbols" stroke="none" stroke-width="1" fill="none" fill-rule="evenodd">
        <g id="Desktop---Footer" transform="translate(-845.000000, -120.000000)">
            <g id="Group-15">
                <g id="Group-13" transform="translate(845.000000, 45.000000)">
                    <g id="Group-3-Copy-2" transform="translate(0.250701, 75.000000)">
                        <g id="twitter">
                            <rect id="Rectangle" x="0" y="0" width="28.364947" height="28"></rect>
                            <ellipse id="Oval" fill="#F5F5F5" cx="14.1824735" cy="14" rx="14.1824735" ry="14"></ellipse>
                            <path d="M19.6789227,10.720011 C20.252633,10.3626252 20.6928484,9.79593713 20.8994477,9.12087508 C20.3622896,9.45261513 19.7687139,9.69252689 19.1354076,9.82241015 C18.630034,9.25985844 17.9077311,8.90909091 17.1083508,8.90909091 C15.5747484,8.90909091 14.3319742,10.2037871 14.3319742,11.8004412 C14.3319742,12.0271165 14.355018,12.2480007 14.4026947,12.4589576 C12.0951396,12.3381745 10.049012,11.1882526 8.67830523,9.43772406 C8.43912683,9.86625609 8.30245345,10.3626252 8.30245345,10.8920857 C8.30245345,11.8947514 8.79272946,12.779943 9.53807612,13.2994761 C9.08276307,13.284585 8.65446685,13.1530472 8.27940969,12.9379539 L8.27940969,12.973527 C8.27940969,14.3749425 9.23612331,15.5438919 10.5082982,15.8086221 C10.274682,15.8764592 10.0299413,15.9103778 9.7756653,15.9103778 C9.59687745,15.9103778 9.42206267,15.8930049 9.25360479,15.8590863 C9.6064128,17.0073536 10.6322577,17.8445629 11.8480151,17.8668995 C10.8968637,18.64289 9.69938248,19.1045133 8.39860158,19.1045133 C8.17452082,19.1045133 7.95282389,19.0921041 7.73589464,19.0648038 C8.9651604,19.8846401 10.4248638,20.3636364 11.9934292,20.3636364 C17.1027885,20.3636364 19.8950573,15.9575329 19.8950573,12.1363177 C19.8950573,12.0105708 19.8934681,11.8856513 19.8879058,11.7623862 C20.4306262,11.3545363 20.9026262,10.8449306 21.2737103,10.265006 C20.7754881,10.4949903 20.2399192,10.6505193 19.6789227,10.720011 Z" id="Shape" fill="#272626"></path>
                        </g>
                    </g>
                </g>
            </g>
        </g>
    </g>
</svg>