<?xml version="1.0" encoding="UTF-8" standalone="no"?>
<svg width="31px" height="28px" viewBox="0 0 31 28" version="1.1" xmlns="http://www.w3.org/2000/svg" xmlns:xlink="http://www.w3.org/1999/xlink">
    <!-- Generator: sketchtool 40.3 (33839) - http://www.bohemiancoding.com/sketch -->
    <title>483A63CB-62DE-428D-9953-C9750EEA6AB5</title>
    <desc>Created with sketchtool.</desc>
    <defs></defs>
    <g id="Symbols" stroke="none" stroke-width="1" fill="none" fill-rule="evenodd">
        <g id="Style-1---Vimeo" transform="translate(-116.000000, -35.000000)" fill="#FEFEFE">
            <path d="M137.951197,36.0165559 C135.318661,37.4567284 133.757895,39.6412792 133.267226,42.5702082 C134.961963,41.5013573 136.211245,41.5239142 137.015073,42.6396141 C137.817226,43.755314 137.75024,45.1954865 136.814116,46.9618667 C134.894977,50.8190997 133.489953,52.7485837 132.597369,52.7485837 C132.374642,52.7485837 132.173685,52.6201828 131.994498,52.3651161 C131.816986,52.1083143 131.616029,51.6554408 131.393302,51.0047605 C131.1689,50.3540801 130.979666,49.7276919 130.823924,49.1221254 L130.120575,46.3337433 C129.986603,45.7767609 129.842584,44.9976796 129.686843,43.9982347 L129.284929,41.3833673 C129.172728,40.6407241 129.005264,39.8269399 128.782536,38.9437498 C128.559809,38.0605597 128.301914,37.3647656 128.012201,36.852897 C127.722489,36.3410285 127.320575,35.935004 126.808134,35.6330883 C126.29402,35.3311726 125.704546,35.2496207 125.034689,35.3884325 C123.874163,35.6209423 122.490909,36.4000235 120.884928,37.7239411 C119.278948,39.0478587 118.163636,40.0837418 117.538995,40.8263849 L116,42.6396141 L117.204067,44.3817023 L117.873924,43.8941258 C118.364593,43.5696532 118.855263,43.3249974 119.345933,43.1618935 C119.836603,42.9987897 120.260287,43.0577847 120.616986,43.3354083 C120.884928,43.708465 121.710527,46.2990403 123.09378,51.1088693 C124.477034,55.9204335 125.346173,58.7088156 125.704546,59.4757508 C126.061244,60.242686 126.540192,60.9402153 127.143063,61.5666036 C127.745933,62.194727 128.481101,62.6354545 129.351914,62.8922563 C130.221053,63.147323 131.125359,62.9495162 132.061484,62.2988359 C134.426077,60.6261536 137.159092,57.8724745 140.260527,54.0377984 C143.361963,50.2031223 145.269379,46.1255255 145.982776,41.803273 C146.473446,38.827495 145.837083,36.8060481 144.07536,35.7371972 C142.311963,34.6683463 140.27225,34.7620443 137.951197,36.0165559 Z" id="Fill-4"></path>
        </g>
    </g>
</svg>