<?xml version="1.0" encoding="UTF-8" standalone="no"?>
<svg width="41px" height="28px" viewBox="0 0 41 28" version="1.1" xmlns="http://www.w3.org/2000/svg" xmlns:xlink="http://www.w3.org/1999/xlink">
    <!-- Generator: sketchtool 40.3 (33839) - http://www.bohemiancoding.com/sketch -->
    <title>4DA9634A-DC69-455B-BAB6-3E45FEF44B70</title>
    <desc>Created with sketchtool.</desc>
    <defs></defs>
    <g id="Symbols" stroke="none" stroke-width="1" fill="none" fill-rule="evenodd">
        <g id="Style-1---YouTube" transform="translate(-111.000000, -35.000000)" fill="#FEFEFE">
            <path d="M151.218669,52.2760479 L151.218669,45.6588583 C151.173605,44.9342301 151.162789,44.2059968 151.074464,43.4867762 C150.905024,42.1204375 150.78245,40.7378757 150.47962,39.3967727 C149.980311,37.190442 148.141703,35.7339753 145.881295,35.5104582 C142.852998,35.209431 139.821096,35.0616213 136.780181,35.0417932 C133.185881,35.0183599 129.587976,34.9714934 125.993675,35.0237676 C123.300654,35.0634238 120.607633,35.2346668 117.914612,35.3716612 C117.148525,35.4113175 116.373425,35.4780121 115.623561,35.6366372 C113.783149,36.0241871 112.533977,37.1489832 111.906687,38.9100821 C111.438022,40.2277518 111.308237,41.621129 111.192874,43.0072959 C111.127982,43.805829 111.099141,44.6097697 111.050472,45.4101054 C111.043261,45.5146537 111.018026,45.6192021 111,45.7237504 L111,52.2760479 C111.039656,52.9051405 111.050472,53.5360357 111.124376,54.1597207 C111.288409,55.5494928 111.425404,56.9482776 111.681367,58.3218266 C112.117586,60.6723619 113.972418,62.253205 116.344584,62.4893401 C119.371078,62.7885647 122.404783,62.9363744 125.443895,62.9562026 C129.039998,62.9814384 132.636101,63.0301074 136.230401,62.9742282 C139.009945,62.9291642 141.787686,62.7471059 144.565428,62.6047038 C145.246795,62.5704552 145.935372,62.5055631 146.600516,62.3631611 C148.426507,61.972006 149.670272,60.863433 150.306574,59.1185571 C150.778845,57.8225181 150.903221,56.4507716 151.020387,55.0862354 C151.090687,54.276887 151.117725,53.4639334 151.168197,52.6527824 C151.175407,52.5266034 151.200643,52.4022269 151.218669,52.2760479 M138.71072,48.6132505 C134.406212,50.844817 130.19003,53.029517 125.930586,55.2376503 L125.930586,41.9437868 C130.188227,44.1663405 134.406212,46.3672635 138.71072,48.6132505" id="Fill-4"></path>
        </g>
    </g>
</svg>